PathFileType	4	(X/Y/Z)	/Users/itak/Documents/Research/Walk-IL/dataset/trc/00556_00009.trc
DataRate	CameraRate	NumFrames	NumMarkers	Units	OrigDataRate	OrigDataStartFrame	OrigNumFrames
100.000000	100.000000	4	55	mm	100.000000	159	318
Frame#	Time	RPSI			LPSI			L3			STRN			T10			C7			CLAV			RBAK			LBAK			LSHO			LUPA			LAEL			LAOL			LWTS			LWPS			LFRA			LIFD			LHPS			LHTS			RSHO			RUPA			RAEL			RAOL			RWTS			RWPS			RFRA			RIFD			RHTS			RHPS			RBHD			LFHD			RFHD			LBHD			LHIP			RHIP			RASI			LASI			LKNE			LTHI			LANK			LTIP			LTOE			LMT1			LMT5			LHEE			RKNE			RTHI			RANK			RTIP			RTOE			RMT1			RMT5			RHEE			*53			*54			
		X1	Y1	Z1	X2	Y2	Z2	X3	Y3	Z3	X4	Y4	Z4	X5	Y5	Z5	X6	Y6	Z6	X7	Y7	Z7	X8	Y8	Z8	X9	Y9	Z9	X10	Y10	Z10	X11	Y11	Z11	X12	Y12	Z12	X13	Y13	Z13	X14	Y14	Z14	X15	Y15	Z15	X16	Y16	Z16	X17	Y17	Z17	X18	Y18	Z18	X19	Y19	Z19	X20	Y20	Z20	X21	Y21	Z21	X22	Y22	Z22	X23	Y23	Z23	X24	Y24	Z24	X25	Y25	Z25	X26	Y26	Z26	X27	Y27	Z27	X28	Y28	Z28	X29	Y29	Z29	X30	Y30	Z30	X31	Y31	Z31	X32	Y32	Z32	X33	Y33	Z33	X34	Y34	Z34	X35	Y35	Z35	X36	Y36	Z36	X37	Y37	Z37	X38	Y38	Z38	X39	Y39	Z39	X40	Y40	Z40	X41	Y41	Z41	X42	Y42	Z42	X43	Y43	Z43	X44	Y44	Z44	X45	Y45	Z45	X46	Y46	Z46	X47	Y47	Z47	X48	Y48	Z48	X49	Y49	Z49	X50	Y50	Z50	X51	Y51	Z51	X52	Y52	Z52	X53	Y53	Z53	X54	Y54	Z54	X55	Y55	Z55	

160	1.59	-437.2294311523438	965.1593627929688	92.89359283447266	-392.3613586425781	957.536376953125	-32.3665885925293	-370.1601867675781	1062.867553710938	36.38849258422852	-80.21806335449219	1154.157836914062	101.4809188842773	-328.1317443847656	1179.903686523438	52.29011535644531	-189.0463104248047	1417.413452148438	103.5727310180664	-59.61605453491211	1263.721313476562	107.6337966918945	-313.2397766113281	1323.585083007812	167.997314453125	-220.7086181640625	1383.285522460938	4.63859224319458	-105.6120376586914	1379.688232421875	-57.43037796020508	-154.6577453613281	1286.510620117188	-160.2942047119141	-233.6348266601562	1116.918212890625	-227.9993438720703	-332.9949035644531	1120.604858398438	-206.3353729248047	-120.5327606201172	928.5527954101562	-111.7648391723633	-137.3147735595703	875.3024291992188	-178.396484375	-201.3096618652344	1039.938842773438	-219.8139495849609	-77.46479034423828	785.2608642578125	-60.23585510253906	-109.205207824707	828.1846923828125	-153.0784912109375	-71.52941131591797	866.2553100585938	-109.8533172607422	-170.7367553710938	1357.77392578125	257.7267761230469	-215.6129455566406	1304.094970703125	319.18505859375	-292.5373229980469	1036.646240234375	367.5444030761719	-352.8663635253906	1018.398132324219	349.1650695800781	-126.9151611328125	882.1771850585938	265.8120727539062	-146.4192810058594	839.489501953125	332.69580078125	-272.5551452636719	984.8258666992188	363.8144226074219	-27.86259841918945	755.6824951171875	249.3219757080078	-52.41355895996094	831.3333129882812	274.5192565917969	-89.81078338623047	791.1533203125	325.154541015625	-66.36031341552734	1551.634887695312	199.4833679199219	108.0254211425781	1519.997192382812	91.19564819335938	67.29930877685547	1517.76123046875	229.7204742431641	-13.25709915161133	1550.25	43.04595565795898	-233.4507598876953	868.74755859375	-112.5291595458984	-383.2758483886719	872.4366455078125	244.5900573730469	-276.5920715332031	881.2164306640625	224.0902557373047	-183.9436340332031	875.2202758789062	-34.49231719970703	29.12621307373047	528.4522094726562	-10.21533107757568	-75.54074096679688	663.0819702148438	-63.88138198852539	-186.5786285400391	91.29135894775391	-53.96750640869141	-93.72516632080078	300.6645202636719	-41.32026672363281	9.645185470581055	80.68069458007812	20.39114570617676	-62.89632034301758	80.44757080078125	49.63275909423828	-66.28338623046875	75.43075561523438	-55.93960952758789	-260.4686889648438	104.2260589599609	-9.067400932312012	-381.2952880859375	421.9582824707031	190.9292449951172	-364.0840759277344	712.1177368164062	248.6734161376953	-662.8141479492188	47.00822830200195	63.82080459594727	-434.8679504394531	284.91455078125	153.8522491455078	-440.9230041503906	37.93221282958984	91.63505554199219	-488.11767578125	42.15596008300781	33.23565292358398	-542.79248046875	36.35791778564453	123.6950454711914	-699.373046875	48.03790283203125	-6.535394191741943	nan	nan	nan	nan	nan	nan	
161	1.6	-414.2010803222656	968.6051025390625	99.91782379150391	-370.0479431152344	961.080322265625	-25.32631301879883	-348.5836181640625	1066.31884765625	43.54537200927734	-59.98938369750977	1161.432373046875	103.7796859741211	-308.3457336425781	1183.806274414062	58.60795211791992	-171.8877105712891	1423.027709960938	106.7637939453125	-40.69972610473633	1271.135864257812	109.1742706298828	-294.1829223632812	1328.198852539062	173.3178863525391	-204.7895050048828	1388.302368164062	8.744555473327637	-90.80137634277344	1386.065185546875	-55.17848205566406	-141.1757965087891	1293.740844726562	-157.6651153564453	-221.1967468261719	1123.931274414062	-224.9135284423828	-319.6826171875	1127.361938476562	-200.6189727783203	-104.4488525390625	934.7245483398438	-112.4365921020508	-123.8527221679688	881.4315185546875	-178.4432525634766	-188.5807647705078	1046.83154296875	-217.8934020996094	-61.66858291625977	790.5875854492188	-61.8257942199707	-95.68580627441406	833.8948364257812	-153.8905639648438	-56.09246444702148	871.5054931640625	-111.6899642944336	-150.7714691162109	1364.37451171875	260.538818359375	-194.4451904296875	1310.754272460938	322.8441162109375	-268.8373718261719	1042.872924804688	372.8853149414062	-329.5705871582031	1024.405395507812	355.6665954589844	-103.470588684082	889.8453369140625	268.7823181152344	-122.3920440673828	846.3834228515625	335.2776794433594	-248.4863433837891	991.415283203125	368.66015625	-3.791180372238159	763.9214477539062	250.0520477294922	-28.7430362701416	839.0728149414062	276.4679870605469	-65.75569152832031	798.3396606445312	326.9926452636719	-48.15765762329102	1558.261596679688	200.6046447753906	126.3331756591797	1525.967895507812	92.52722930908203	85.36986541748047	1523.818359375	231.0605773925781	5.218466758728027	1556.828979492188	44.23927688598633	-210.7154998779297	874.3645629882812	-105.9712753295898	-360.068115234375	875.6681518554688	251.1422271728516	-253.406494140625	884.5306396484375	229.9441833496094	-161.0713958740234	880.485595703125	-28.3779354095459	53.11999130249023	535.4183959960938	-6.778736114501953	-52.17646026611328	669.8917846679688	-59.30177688598633	-127.9660263061523	77.79682159423828	-37.25558853149414	-52.42615127563477	296.4299926757812	-32.01814270019531	68.59449005126953	83.83506774902344	37.7416877746582	-3.988236904144287	80.14584350585938	66.78865051269531	-6.640982627868652	69.28730010986328	-38.14307022094727	-202.9712066650391	88.39201354980469	6.767734050750732	-373.3226013183594	426.1366271972656	190.1754455566406	-344.1514892578125	714.7473754882812	252.1585235595703	-661.7406005859375	53.47791290283203	66.29655456542969	-429.7894592285156	290.0238037109375	153.8812866210938	-441.6625061035156	37.79396057128906	90.8369140625	-488.0632019042969	43.13469314575195	33.2578125	-542.5308227539062	36.43787384033203	123.6884689331055	-698.5821533203125	58.29231643676758	-3.550773620605469	nan	nan	nan	nan	nan	nan	
162	1.61	-390.8055725097656	972.1276245117188	106.6398162841797	-347.3146362304688	964.631591796875	-18.55856513977051	-326.5738525390625	1069.748413085938	50.6865234375	-39.64302825927734	1168.620361328125	106.3538818359375	-288.4197387695312	1187.748046875	64.84494018554688	-154.5498657226562	1428.579345703125	109.9636154174805	-21.70445442199707	1278.456298828125	110.9839477539062	-274.9808044433594	1332.830688476562	178.4942626953125	-188.5670318603516	1393.233276367188	12.8077335357666	-75.62599945068359	1392.19873046875	-52.7321891784668	-126.9750900268555	1300.487548828125	-154.8123321533203	-207.4524993896484	1130.164184570312	-221.5110473632812	-305.0882568359375	1133.105834960938	-194.947265625	-87.00336456298828	940.6348876953125	-112.2571105957031	-108.4479751586914	887.2699584960938	-177.6860504150391	-174.3703918457031	1053.103271484375	-215.4639129638672	-44.30931091308594	795.7747802734375	-62.38069534301758	-80.17671966552734	839.3807983398438	-153.7797546386719	-39.09798812866211	876.6670532226562	-112.4184188842773	-130.8519134521484	1370.940063476562	263.4350280761719	-173.4845123291016	1317.4169921875	326.4729614257812	-245.9730377197266	1049.213256835938	377.9974975585938	-307.0061645507812	1030.635131835938	361.6940307617188	-80.62749481201172	897.2868041992188	272.3323059082031	-99.53690338134766	852.9718017578125	338.198974609375	-225.3572387695312	998.078125	373.333740234375	19.26645278930664	771.46826171875	251.7929840087891	-5.942899703979492	846.1831665039062	279.3239135742188	-43.0684700012207	805.0066528320312	329.3781433105469	-29.9619312286377	1564.860961914062	201.7461547851562	144.5964050292969	1531.956176757812	93.79300689697266	103.4743194580078	1529.987670898438	232.3657073974609	23.59346961975098	1563.2998046875	45.41793823242188	-187.7610778808594	879.5524291992188	-99.56259155273438	-336.3743286132812	879.125732421875	257.5249328613281	-229.7842559814453	888.101806640625	235.6137084960938	-137.9655456542969	885.4588012695312	-22.53686141967773	75.68331146240234	540.3818359375	-3.314061164855957	-29.56033134460449	675.0990600585938	-54.8770751953125	-71.92357635498047	65.99707794189453	-20.7712574005127	-13.05854988098145	292.1876831054688	-22.82133293151855	123.7029266357422	86.74205017089844	55.28856658935547	51.13235473632812	80.55040740966797	83.93330383300781	49.8770637512207	63.65005493164062	-20.09680938720703	-147.9927215576172	74.89981079101562	22.04129028320312	-362.7646179199219	430.8253479003906	190.2977600097656	-323.1323547363281	717.7742919921875	255.8101043701172	-659.76611328125	61.98725509643555	69.21871948242188	-422.5337524414062	295.90966796875	154.678955078125	-442.5252685546875	37.67212677001953	89.97489929199219	-487.7835998535156	44.60960006713867	33.36084365844727	-541.987060546875	36.97587585449219	123.7270431518555	-696.3577270507812	71.18181610107422	-0.0316382609307766	nan	nan	nan	nan	nan	nan	
163	1.62	-367.1513061523438	975.6242065429688	112.9239807128906	-324.2508850097656	968.043701171875	-12.21030235290527	-304.2345275878906	1073.071166992188	57.61019134521484	-19.23952293395996	1175.54345703125	109.2091598510742	-268.4452209472656	1191.626342773438	70.91865539550781	-137.0258483886719	1433.921752929688	113.1868133544922	-2.653833627700806	1285.500366210938	113.085563659668	-255.6784515380859	1337.357421875	183.5131988525391	-172.0357055664062	1397.932983398438	16.82918930053711	-60.06299209594727	1397.931274414062	-50.09884643554688	-112.0299682617188	1306.54638671875	-151.7454223632812	-192.3064270019531	1135.384033203125	-217.8001403808594	-289.1641540527344	1137.62939453125	-189.3582763671875	-68.16758728027344	946.04248046875	-111.174201965332	-91.06817626953125	892.57080078125	-176.1111145019531	-158.5981597900391	1058.49365234375	-212.5223388671875	-25.31242752075195	800.6033935546875	-61.88380432128906	-62.61845016479492	844.420166015625	-152.7358551025391	-20.49163818359375	881.521728515625	-112.0156860351562	-111.0235443115234	1377.2939453125	266.4312438964844	-152.7716064453125	1323.882934570312	330.0816040039062	-223.9118041992188	1055.457641601562	382.9105834960938	-285.1549987792969	1036.85009765625	367.2888488769531	-58.35456085205078	904.2594604492188	276.4517822265625	-77.71863555908203	859.0850830078125	341.5447387695312	-203.1259002685547	1004.587646484375	377.8910522460938	41.32866668701172	778.0573120117188	254.5316314697266	16.0430736541748	852.4354248046875	283.0053405761719	-21.61127090454102	810.9711303710938	332.3554992675781	-11.75869560241699	1571.268676757812	202.9872436523438	162.7965393066406	1537.79248046875	95.03958892822266	121.6255493164062	1536.089599609375	233.6884155273438	41.85221481323242	1569.492797851562	46.64429092407227	-164.6816558837891	884.1107788085938	-93.38748931884766	-312.3170166015625	882.75390625	263.6388549804688	-205.8513641357422	891.8936157226562	241.0548248291016	-114.6874237060547	890.0317993164062	-16.97554588317871	97.02608489990234	543.4033813476562	0.3828838467597961	-7.641005516052246	678.6068725585938	-50.53496551513672	-19.80559730529785	56.06916427612305	-4.822232723236084	23.79669570922852	288.08544921875	-13.72684860229492	174.1176910400391	89.14545440673828	72.64482879638672	101.499626159668	81.36495971679688	100.7066421508789	102.1072845458984	58.66094970703125	-2.219804763793945	-96.88999938964844	63.85406875610352	36.54365158081055	-349.1954650878906	435.6493530273438	191.6550598144531	-301.046875	721.11328125	259.723388671875	-656.523193359375	72.60773468017578	72.64689636230469	-412.6634826660156	302.2579650878906	156.5224609375	-443.3972778320312	37.5494384765625	89.12393188476562	-487.1589050292969	46.69494247436523	33.62805557250977	-541.0014038085938	38.20032119750977	123.9193878173828	-692.2108154296875	86.69605255126953	4.086946964263916	nan	nan	nan	nan	nan	nan	
